<?xml version="1.0" encoding="UTF-8"?>
<svg xmlns="http://www.w3.org/2000/svg" xmlns:xlink="http://www.w3.org/1999/xlink" viewBox="0 0 24 24" width="24px" height="24px">
<g id="surface1859182">
<path style=" stroke:none;fill-rule:nonzero;fill:rgb(0%,0%,0%);fill-opacity:1;" d="M 21 18.5 C 21 19.882812 19.882812 21 18.5 21 L 5.5 21 C 4.121094 21 3 19.882812 3 18.5 L 3 5.5 C 3 4.117188 4.121094 3 5.5 3 L 18.5 3 C 19.882812 3 21 4.117188 21 5.5 Z M 21 18.5 "/>
<path style=" stroke:none;fill-rule:nonzero;fill:rgb(100%,100%,100%);fill-opacity:1;" d="M 16.515625 12.800781 C 16.191406 12.351562 15.71875 12.039062 15.113281 11.875 C 15.113281 11.875 15.625 11.691406 16.085938 11 C 16.359375 10.558594 16.5 10.03125 16.5 9.410156 C 16.5 8.335938 16.109375 7.511719 15.328125 6.945312 C 14.550781 6.378906 13.671875 6 12.175781 6 L 7.5 6 L 7.5 18 L 12.714844 18 C 14.128906 17.988281 15.195312 17.683594 15.921875 17.101562 C 16.640625 16.503906 17 15.625 17 14.449219 C 17 13.800781 16.839844 13.25 16.515625 12.800781 Z M 10.5 8 C 10.5 8 12.585938 8 12.625 8 C 13.386719 8 14 8.613281 14 9.375 C 14 10.136719 13.386719 10.75 12.625 10.75 C 12.585938 10.75 10.5 10.75 10.5 10.75 Z M 13 16 L 10.5 16 L 10.5 13 L 13 13 C 13.828125 13 14.5 13.671875 14.5 14.5 C 14.5 15.328125 13.828125 16 13 16 Z M 13 16 "/>
</g>
</svg>
